<svg width="60" height="60" viewBox="0 0 60 60" fill="none" xmlns="http://www.w3.org/2000/svg">
<path d="M29.557 0C13.259 0 0 13.259 0 29.558C0 45.856 13.259 59.115 29.557 59.115C45.855 59.115 59.115 45.856 59.115 29.558C59.115 13.26 45.855 0 29.557 0ZM29.557 54.115C16.016 54.115 5 43.099 5 29.558C5 16.017 16.016 5 29.557 5C43.098 5 54.115 16.017 54.115 29.558C54.115 43.099 43.098 54.115 29.557 54.115Z" fill="black"/>
<path d="M42.104 17.014C41.127 16.037 39.545 16.037 38.569 17.014L29.559 26.024L20.549 17.014C19.573 16.037 17.989 16.037 17.014 17.014C16.037 17.99 16.037 19.573 17.014 20.549L26.024 29.559L17.014 38.569C16.037 39.545 16.037 41.128 17.014 42.104C17.502 42.592 18.142 42.836 18.782 42.836C19.422 42.836 20.062 42.592 20.55 42.104L29.56 33.094L38.57 42.104C39.058 42.592 39.698 42.836 40.338 42.836C40.978 42.836 41.617 42.592 42.106 42.104C43.083 41.128 43.083 39.545 42.106 38.569L33.096 29.559L42.106 20.549C43.08 19.573 43.08 17.99 42.104 17.014Z" fill="black"/>
</svg>
